<svg xmlns="http://www.w3.org/2000/svg" width="184" height="184" viewBox="0 0 184 184">
  <g id="Ma_QR" data-name="Ma QR" transform="translate(-0.144 -0.302)">
    <g id="Rectangle_9" data-name="Rectangle 9" transform="translate(0.144 0.302)" fill="#fff" stroke="#707070" stroke-width="1">
      <rect width="184" height="184" rx="5" stroke="none"/>
      <rect x="0.5" y="0.5" width="183" height="183" rx="4.5" fill="none"/>
    </g>
    <g id="blackberry-qr-code-variant" transform="translate(12.276 12.276)">
      <path id="Path_2162" data-name="Path 2162" d="M37.816,83.192h7.57v7.57H52.95v7.564H15.134V90.761H22.7V75.627H37.832v7.564h-.016Zm98.32,68.058h7.554v-7.564h-7.554ZM45.381,83.192h7.564V75.627H45.381Zm105.863,68.058h7.57v-7.564h-7.57Zm-90.73,7.559H75.633v-7.564H60.515v7.564Zm68.052,0v-7.564H121v7.564Zm-30.247,0h7.564V143.68H98.32Zm-60.5-98.3v7.564H60.5V60.5Zm-7.554,7.559V60.5H15.129V75.627h7.564V68.063ZM52.945,52.934H.011V.005H52.945ZM45.381,7.57H7.564V45.375H45.381ZM15.129,143.685H37.811V121H15.129Zm75.622-7.57v7.57h7.575v-7.57ZM37.816,15.134H15.134V37.811H37.816V15.134ZM158.808.005V52.94H105.874V.005ZM151.244,7.57H113.438V45.375h37.806ZM0,105.863H52.94V158.8H0Zm7.57,45.386H45.386V113.433H7.57Zm0-90.745H0V98.32H7.57Zm98.3,37.806v7.554h7.564V98.31ZM83.186,128.562V121H75.627v7.57H60.509V143.7H75.627v7.564h7.559V136.131h7.57v-7.564h-7.57Zm-22.672-98.3H75.633V22.682H60.515v7.575ZM121,90.756h15.139V98.32H143.7V75.638h-7.559V60.5h-7.575V83.192H105.9v7.57h7.564v7.564h7.564V90.761H121Zm7.564,22.677H121v-7.57h-7.564V121H90.751v7.57H105.89V143.7h7.564v7.564h7.564V136.131H151.26v-7.564H128.578V113.433Zm0,0h7.575V98.31h-7.575Zm-60.5,0v-7.57h7.554V98.31h7.559V90.745h7.57V75.611h22.682V60.478h-7.564v7.564H98.3V37.8H90.74V22.661H98.3V0H90.74V15.129H83.176V0H60.493V15.129h7.564V7.564h7.554V22.682h7.564V45.37H90.74v7.564H83.176V68.063H75.611V52.934H68.058V45.375H60.493V60.5h7.564v7.564H60.493V90.761h7.564V75.627h7.554V90.761H68.058v7.564H60.493V121H75.611v-7.564ZM151.244,121v-7.564H136.126V121ZM143.68,15.134H121V37.811H143.68Zm-60.493,98.3H98.326v-7.57H90.751V98.31h-7.57v15.123ZM98.32,98.31V90.745H90.745V98.31ZM143.68,68.063h15.134V60.5H143.68Zm7.564,60.5h7.57V121h-7.57Zm0-45.37h7.57V75.627h-7.57ZM83.186,45.375H75.627V52.94h7.559Z"/>
    </g>
  </g>
</svg>
