<svg xmlns="http://www.w3.org/2000/svg" width="29.25" height="26.281" viewBox="0 0 29.25 26.281">
  <g id="ic_bang_tin" data-name="ic_bang tin" transform="translate(-1.25 -1.25)">
    <g id="picture-1" transform="translate(2 2)">
      <rect id="Rectangle_5" data-name="Rectangle 5" width="10.781" height="10.781" rx="2" fill="none" stroke="#999" stroke-linecap="round" stroke-linejoin="round" stroke-miterlimit="10" stroke-width="1.5"/>
      <path id="Rectangle_5_Copy" data-name="Rectangle 5 Copy" d="M0,4.312,2.156,2.156,4.312,3.773,7.546,0l3.234,3.234V5.66a.809.809,0,0,1-.809.809H.809A.809.809,0,0,1,0,5.66Z" transform="translate(0 4.312)" fill="none" stroke="#999" stroke-linecap="round" stroke-linejoin="round" stroke-miterlimit="10" stroke-width="1.5"/>
      <circle id="Oval" cx="1.078" cy="1.078" r="1.078" transform="translate(2.156 2.156)" fill="#999"/>
    </g>
    <g id="picture-1-2" data-name="picture-1" transform="translate(2 16)">
      <rect id="Rectangle_5-2" data-name="Rectangle 5" width="10.781" height="10.781" rx="2" fill="none" stroke="#999" stroke-linecap="round" stroke-linejoin="round" stroke-miterlimit="10" stroke-width="1.5"/>
      <path id="Rectangle_5_Copy-2" data-name="Rectangle 5 Copy" d="M0,4.312,2.156,2.156,4.312,3.773,7.546,0l3.234,3.234V5.66a.809.809,0,0,1-.809.809H.809A.809.809,0,0,1,0,5.66Z" transform="translate(0 4.312)" fill="none" stroke="#999" stroke-linecap="round" stroke-linejoin="round" stroke-miterlimit="10" stroke-width="1.5"/>
      <circle id="Oval-2" data-name="Oval" cx="1.078" cy="1.078" r="1.078" transform="translate(2.156 2.156)" fill="#999"/>
    </g>
    <g id="Group_446" data-name="Group 446" transform="translate(17.15 4.875)">
      <path id="Path_217" data-name="Path 217" d="M0,1H12.35" transform="translate(0 -1)" fill="none" stroke="#999" stroke-linecap="round" stroke-linejoin="round" stroke-width="2"/>
      <path id="Path_533" data-name="Path 533" d="M0,1H12.35" transform="translate(0 5)" fill="none" stroke="#999" stroke-linecap="round" stroke-linejoin="round" stroke-width="2"/>
    </g>
    <g id="Group_447" data-name="Group 447" transform="translate(17.15 18.875)">
      <path id="Path_217-2" data-name="Path 217" d="M0,1H12.35" transform="translate(0 -1)" fill="none" stroke="#999" stroke-linecap="round" stroke-linejoin="round" stroke-width="2"/>
      <path id="Path_533-2" data-name="Path 533" d="M0,1H12.35" transform="translate(0 5)" fill="none" stroke="#999" stroke-linecap="round" stroke-linejoin="round" stroke-width="2"/>
    </g>
  </g>
</svg>
