<svg xmlns="http://www.w3.org/2000/svg" xmlns:xlink="http://www.w3.org/1999/xlink" width="15" height="15" viewBox="0 0 15 15">
  <defs>
    <clipPath id="clip-path">
      <rect width="15" height="15" fill="none"/>
    </clipPath>
  </defs>
  <g id="Badge_13px" clip-path="url(#clip-path)">
    <g id="Badge_13px-2" data-name="Badge_13px" transform="translate(1 1)">
      <g id="Badge" transform="translate(-39.268 -0.139)">
        <path id="Path_1997" data-name="Path 1997" d="M58.969,6.913a.453.453,0,0,0,0-.655l-.9-.908a.446.446,0,0,1-.122-.449l.328-1.236a.468.468,0,0,0-.328-.571l-1.236-.337a.448.448,0,0,1-.328-.328l-.337-1.267a.461.461,0,0,0-.571-.328l-1.236.328a.446.446,0,0,1-.449-.122l-.908-.9a.453.453,0,0,0-.655,0l-.908.9a.446.446,0,0,1-.449.122L49.634.833a.465.465,0,0,0-.571.328l-.337,1.267a.448.448,0,0,1-.328.328l-1.236.337a.468.468,0,0,0-.328.571L47.162,4.9a.446.446,0,0,1-.122.449l-.9.908a.453.453,0,0,0,0,.655l.9.908a.446.446,0,0,1,.122.449l-.328,1.236a.468.468,0,0,0,.328.571l1.236.337a.448.448,0,0,1,.328.328l.337,1.236a.461.461,0,0,0,.571.328l1.236-.328a.446.446,0,0,1,.449.122l.908.9a.452.452,0,0,0,.655,0l.908-.9a.446.446,0,0,1,.449-.122l1.236.328a.461.461,0,0,0,.571-.328l.337-1.236a.448.448,0,0,1,.328-.328l1.236-.337a.468.468,0,0,0,.328-.571l-.328-1.236a.446.446,0,0,1,.122-.449Z" transform="translate(-6.731 0)" fill="#ffda2d"/>
        <path id="Path_1998" data-name="Path 1998" d="M261.515,7.821a.446.446,0,0,0-.122.449l.328,1.236a.468.468,0,0,1-.328.571l-1.236.337a.448.448,0,0,0-.328.328l-.337,1.236a.461.461,0,0,1-.571.328l-1.236-.328a.446.446,0,0,0-.449.122l-.908.9a.439.439,0,0,1-.328.14V0a.439.439,0,0,1,.328.14l.908.9a.446.446,0,0,0,.449.122l1.236-.328a.461.461,0,0,1,.571.328l.337,1.267a.448.448,0,0,0,.328.328l1.236.337a.468.468,0,0,1,.328.571L261.393,4.9a.446.446,0,0,0,.122.449l.9.908a.453.453,0,0,1,0,.655Z" transform="translate(-210.176)" fill="#fdbf00"/>
        <path id="Path_1999" data-name="Path 1999" d="M139.745,91a3.745,3.745,0,1,0,3.745,3.745A3.744,3.744,0,0,0,139.745,91Z" transform="translate(-93.921 -88.16)" fill="#fdbf00"/>
        <path id="Path_2000" data-name="Path 2000" d="M259.745,94.745A3.744,3.744,0,0,1,256,98.49V91A3.744,3.744,0,0,1,259.745,94.745Z" transform="translate(-210.176 -88.16)" fill="#ff9100"/>
        <path id="Path_2001" data-name="Path 2001" d="M199.606,181.8l-1.732,1.732-.14.14a.452.452,0,0,1-.655,0l-.936-.936a.463.463,0,0,1,.655-.655l.609.6.468-.468,1.077-1.067a.463.463,0,1,1,.655.655Z" transform="translate(-152.049 -175.351)" fill="#ffda2d"/>
        <path id="Path_2002" data-name="Path 2002" d="M257.732,181.8,256,183.528v-1.32l1.077-1.067a.463.463,0,1,1,.655.655Z" transform="translate(-210.176 -175.351)" fill="#fdbf00"/>
      </g>
    </g>
  </g>
</svg>
