<svg xmlns="http://www.w3.org/2000/svg" width="30" height="30" viewBox="0 0 30 30">
  <g id="ic_tin_sv" data-name="ic_tin sv" transform="translate(0.52 -0.805)">
    <circle id="bg" cx="15" cy="15" r="15" transform="translate(-0.52 0.805)" fill="#0b46ae"/>
    <g id="newspaper" transform="translate(8.48 9.805)">
      <rect id="Rectangle" width="7.917" height="8.482" rx="1" stroke-width="1" transform="translate(3.393 2.827)" stroke="#fff" stroke-linecap="round" stroke-linejoin="round" stroke-miterlimit="10" fill="none"/>
      <path id="Combined_Shape" data-name="Combined Shape" d="M.847,0A.85.85,0,0,0,0,.849v9.33a1.131,1.131,0,0,0,1.131,1.13h9.025A1.129,1.129,0,0,1,9.047,10.18V.848A.848.848,0,0,0,8.2,0Z" fill="#0b46ae" stroke="#fff" stroke-linecap="round" stroke-linejoin="round" stroke-miterlimit="10" stroke-width="1"/>
      <rect id="Rectangle_61" data-name="Rectangle 61" width="4.524" height="2.262" transform="translate(2.262 2.262)" stroke-width="1" stroke="#fff" stroke-linecap="round" stroke-linejoin="round" stroke-miterlimit="10" fill="none"/>
      <path id="Line" d="M0,1H4.524" transform="translate(2.262 5.786)" fill="none" stroke="#fff" stroke-linecap="round" stroke-linejoin="round" stroke-miterlimit="10" stroke-width="1"/>
      <path id="Line_Copy" data-name="Line Copy" d="M0,1H4.524" transform="translate(2.262 7.765)" fill="none" stroke="#fff" stroke-linecap="round" stroke-linejoin="round" stroke-miterlimit="10" stroke-width="1"/>
    </g>
  </g>
</svg>
