<svg xmlns="http://www.w3.org/2000/svg" width="30" height="30" viewBox="0 0 30 30">
  <g id="ic_thu_vien" data-name="ic_thu vien" transform="translate(0.52 -0.805)">
    <circle id="bg" cx="15" cy="15" r="15" transform="translate(-0.52 0.805)" fill="#0b46ae"/>
    <g id="ic_thu_vien-2" data-name="ic_thu vien" transform="translate(7.48 -32.322)">
      <path id="Path_1965" data-name="Path 1965" d="M225.435,130.259V124.8a.221.221,0,0,0-.435,0v5.456a.221.221,0,0,0,.435,0Z" transform="translate(-218.479 -79.547)" fill="#fff" stroke="#fff" stroke-width="0.4"/>
      <path id="Path_1966" data-name="Path 1966" d="M13.26,43.1a5.64,5.64,0,0,1-1.638-.408,7.871,7.871,0,0,0-2.541-.567,2.6,2.6,0,0,0-2.342,1.257A2.6,2.6,0,0,0,4.4,42.126a7.871,7.871,0,0,0-2.541.567A5.641,5.641,0,0,1,.217,43.1.217.217,0,0,0,0,43.319v8.756a.217.217,0,0,0,.217.217A5.9,5.9,0,0,0,2,51.86a7.54,7.54,0,0,1,2.4-.543,2.214,2.214,0,0,1,1.711.7.217.217,0,0,0,.321-.293A2.649,2.649,0,0,0,4.4,50.881a7.871,7.871,0,0,0-2.541.567,7.254,7.254,0,0,1-1.421.4V43.525A7.189,7.189,0,0,0,2,43.1a7.54,7.54,0,0,1,2.4-.543,2.145,2.145,0,0,1,2.134,1.388.217.217,0,0,0,.416,0A2.165,2.165,0,0,1,9.08,42.561a7.54,7.54,0,0,1,2.4.543,7.188,7.188,0,0,0,1.563.421v8.318a7.256,7.256,0,0,1-1.421-.4,7.871,7.871,0,0,0-2.541-.567,2.649,2.649,0,0,0-2.032.842.217.217,0,1,0,.321.293,2.214,2.214,0,0,1,1.711-.7,7.54,7.54,0,0,1,2.4.543,5.9,5.9,0,0,0,1.781.432.217.217,0,0,0,.217-.217V43.319A.217.217,0,0,0,13.26,43.1Z" fill="#fff" stroke="#fff" stroke-width="0.4"/>
      <path id="Path_1967" data-name="Path 1967" d="M13.26,375.193a5.64,5.64,0,0,1-1.638-.408,7.871,7.871,0,0,0-2.541-.567,2.663,2.663,0,0,0-1.965.771H6.362a2.663,2.663,0,0,0-1.965-.771,7.871,7.871,0,0,0-2.541.567,5.64,5.64,0,0,1-1.638.408.217.217,0,0,0,0,.435A5.9,5.9,0,0,0,2,375.2a7.541,7.541,0,0,1,2.4-.543,2.214,2.214,0,0,1,1.711.7.217.217,0,0,0,.161.071h.941a.217.217,0,0,0,.161-.071,2.214,2.214,0,0,1,1.711-.7,7.541,7.541,0,0,1,2.4.543,5.9,5.9,0,0,0,1.781.432.217.217,0,0,0,0-.435Z" transform="translate(0 -321.467)" fill="#fff" stroke="#fff" stroke-width="0.4"/>
    </g>
  </g>
</svg>
