<svg xmlns="http://www.w3.org/2000/svg" xmlns:xlink="http://www.w3.org/1999/xlink" width="24" height="24" viewBox="0 0 24 24">
  <defs>
    <clipPath id="clip-path">
      <path id="Path_198" data-name="Path 198" d="M-6-22H18V-46H-6Z" transform="translate(6 46)" fill="none"/>
    </clipPath>
  </defs>
  <g id="Group_154" data-name="Group 154" clip-path="url(#clip-path)">
    <g id="Group_149" data-name="Group 149" transform="translate(15 2)">
      <path id="Path_193" data-name="Path 193" d="M2.5,5A2.5,2.5,0,1,0,0,2.5,2.5,2.5,0,0,0,2.5,5Z" fill="none" stroke="#333" stroke-linecap="round" stroke-linejoin="round" stroke-width="2"/>
    </g>
    <g id="Group_150" data-name="Group 150" transform="translate(15 17)">
      <path id="Path_194" data-name="Path 194" d="M2.5,5A2.5,2.5,0,1,0,0,2.5,2.5,2.5,0,0,0,2.5,5Z" fill="none" stroke="#333" stroke-linecap="round" stroke-linejoin="round" stroke-width="2"/>
    </g>
    <g id="Group_151" data-name="Group 151" transform="translate(4 9.5)">
      <path id="Path_195" data-name="Path 195" d="M2.5,5A2.5,2.5,0,1,0,0,2.5,2.5,2.5,0,0,0,2.5,5Z" fill="none" stroke="#333" stroke-linecap="round" stroke-linejoin="round" stroke-width="2"/>
    </g>
    <g id="Group_152" data-name="Group 152" transform="translate(9 13.5)">
      <path id="Path_196" data-name="Path 196" d="M6-4.5,0-9" transform="translate(0 9)" fill="none" stroke="#333" stroke-linecap="round" stroke-linejoin="round" stroke-width="2"/>
    </g>
    <g id="Group_153" data-name="Group 153" transform="translate(9 6)">
      <path id="Path_197" data-name="Path 197" d="M6,0,0,4.5" fill="none" stroke="#333" stroke-linecap="round" stroke-linejoin="round" stroke-width="2"/>
    </g>
  </g>
</svg>
