<svg xmlns="http://www.w3.org/2000/svg" xmlns:xlink="http://www.w3.org/1999/xlink" width="24" height="24" viewBox="0 0 24 24">
  <defs>
    <clipPath id="clip-path">
      <path id="Path_185" data-name="Path 185" d="M-2-20H22V-44H-2Z" transform="translate(2 44)" fill="none"/>
    </clipPath>
  </defs>
  <g id="Group_140" data-name="Group 140" clip-path="url(#clip-path)">
    <g id="Group_139" data-name="Group 139" transform="translate(2 3)">
      <path id="Path_184" data-name="Path 184" d="M10,2.895A5.133,5.133,0,0,0,5.5,0C2.636,0,0,2.3,0,6.158c0,3.683,3.409,6.28,5.265,8.048A50.348,50.348,0,0,0,10,18a50.348,50.348,0,0,0,4.735-3.794C16.591,12.438,20,9.841,20,6.158,20,2.3,17.364,0,14.5,0A5.134,5.134,0,0,0,10,2.895Z" fill="none" stroke="#333" stroke-linecap="round" stroke-linejoin="round" stroke-width="2"/>
    </g>
  </g>
</svg>
