<svg xmlns="http://www.w3.org/2000/svg" width="30" height="30" viewBox="0 0 30 30">
  <g id="ic_nha_tro" data-name="ic_nha tro" transform="translate(0.52 -0.805)">
    <circle id="bg" cx="15" cy="15" r="15" transform="translate(-0.52 0.805)" fill="#0b46ae"/>
    <g id="shop-1" transform="translate(8.797 9.121)">
      <rect id="Rectangle_58" data-name="Rectangle 58" width="9.794" height="8.642" rx="1" transform="translate(0.864 2.881)" stroke-width="1" stroke="#fff" stroke-linecap="round" stroke-linejoin="round" stroke-miterlimit="10" fill="none"/>
      <path id="Rectangle" d="M1.44,0h0a1.44,1.44,0,0,1,1.44,1.44V4.033a0,0,0,0,1,0,0H0a0,0,0,0,1,0,0V1.44A1.44,1.44,0,0,1,1.44,0Z" transform="translate(4.321 7.49)" fill="none" stroke="#fff" stroke-linecap="round" stroke-linejoin="round" stroke-miterlimit="10" stroke-width="1"/>
      <path id="Combined_Shape" data-name="Combined Shape" d="M1.565.3A.576.576,0,0,1,2.07,0H9.452a.576.576,0,0,1,.506.3l1.565,2.868a2.017,2.017,0,0,1-3.889.75,2.017,2.017,0,0,1-3.745,0A2.017,2.017,0,0,1,0,3.169Z" transform="translate(0 0)" fill="#0b46ae" stroke="#fff" stroke-linecap="round" stroke-linejoin="round" stroke-miterlimit="10" stroke-width="1"/>
    </g>
  </g>
</svg>
