<svg xmlns="http://www.w3.org/2000/svg" xmlns:xlink="http://www.w3.org/1999/xlink" width="30.727" height="30.727" viewBox="0 0 30.727 30.727">
  <defs>
    <clipPath id="clip-path">
      <path id="Path_163" data-name="Path 163" d="M-2-12.273H28.727V-43H-2Z" transform="translate(2 43)" fill="none"/>
    </clipPath>
  </defs>
  <g id="ic_xep_hang" data-name="ic_xep hang" clip-path="url(#clip-path)">
    <g id="Group_113" data-name="Group 113" transform="translate(2.561 4.481)">
      <path id="Path_161" data-name="Path 161" d="M.043,5.475c-.2-1.063.338-1.4,1.207-.747L5.977,8.259A1.587,1.587,0,0,0,8.43,7.685L11.924.725c.485-.967,1.274-.965,1.758,0l3.493,6.961a1.586,1.586,0,0,0,2.454.574l4.727-3.532c.87-.65,1.411-.318,1.207.747L23.045,16.644H2.561Z" transform="translate(0 0)" fill="none" stroke="#999" stroke-linecap="round" stroke-linejoin="round" stroke-width="2"/>
    </g>
    <g id="Group_114" data-name="Group 114" transform="translate(5.121 21.125)">
      <path id="Path_162" data-name="Path 162" d="M0,0H20.484V3.2a1.917,1.917,0,0,1-1.918,1.921H1.918A1.918,1.918,0,0,1,0,3.2Z" fill="none" stroke="#999" stroke-linecap="round" stroke-linejoin="round" stroke-width="2"/>
    </g>
  </g>
</svg>
