<svg xmlns="http://www.w3.org/2000/svg" xmlns:xlink="http://www.w3.org/1999/xlink" width="30" height="30" viewBox="0 0 30 30">
  <defs>
    <clipPath id="clip-path">
      <path id="Path_135" data-name="Path 135" d="M-2-16H28V-46H-2Z" transform="translate(2 46)" fill="none"/>
    </clipPath>
    <clipPath id="clip-path-2">
      <path id="Path_138" data-name="Path 138" d="M17.622-8A3.1,3.1,0,0,0,17-6.134a3.11,3.11,0,0,0,3.11,3.11,3.11,3.11,0,0,0,3.11-3.11A3.1,3.1,0,0,0,22.6-8Z" transform="translate(-17 8)" fill="#fff" clip-rule="evenodd"/>
    </clipPath>
    <clipPath id="clip-path-3">
      <path id="Path_137" data-name="Path 137" d="M-2-16.14H27.86V-46H-2Z" transform="translate(2 46)" fill="#fff"/>
    </clipPath>
  </defs>
  <g id="Thong_bao" data-name="Thong bao" transform="translate(-1690 -29)">
    <g id="Group_89" data-name="Group 89" transform="translate(1690 29)" clip-path="url(#clip-path)">
      <g id="Group_88" data-name="Group 88" transform="translate(2.5 2.5)">
        <path id="Path_134" data-name="Path 134" d="M21.861,18.288A5.778,5.778,0,0,1,20.625,15V8.125a8.125,8.125,0,0,0-16.25,0V15a5.785,5.785,0,0,1-1.236,3.29L0,21.875H25Z" fill="none" stroke="#fff" stroke-linecap="round" stroke-linejoin="round" stroke-width="2"/>
      </g>
    </g>
    <g id="Group_91" data-name="Group 91" transform="translate(1701.89 52.779)" clip-path="url(#clip-path-2)">
      <g id="Group_90" data-name="Group 90" transform="translate(-11.82 -23.639)" clip-path="url(#clip-path-3)">
        <path id="Path_136" data-name="Path 136" d="M12-1.8H24.442V-13H12Z" transform="translate(-3.291 33.529)" fill="#fff"/>
      </g>
    </g>
  </g>
</svg>
