<svg height="464pt" viewBox="0 -56 464 464" width="464pt" xmlns="http://www.w3.org/2000/svg"><path d="m72 128v120c97.066406 64 222.933594 64 320 0v-120zm0 0" fill="#394d5c"/><path d="m232.902344 0-232.902344 100 232 100 232-100zm0 0" fill="#546977"/><path d="m256 96c0 13.253906-10.746094 24-24 24s-24-10.746094-24-24 10.746094-24 24-24 24 10.746094 24 24zm0 0" fill="#cfdfe8"/><path d="m400 304h48v48h-48zm0 0" fill="#546977"/><path d="m424 312c-4.417969 0-8-3.582031-8-8v-200h-184c-4.417969 0-8-3.582031-8-8s3.582031-8 8-8h192c4.417969 0 8 3.582031 8 8v208c0 4.417969-3.582031 8-8 8zm0 0" fill="#91b2bc"/></svg>