<svg id="ic_anh" xmlns="http://www.w3.org/2000/svg" xmlns:xlink="http://www.w3.org/1999/xlink" width="20" height="20" viewBox="0 0 20 20">
  <defs>
    <clipPath id="clip-path">
      <path id="Path_262" data-name="Path 262" d="M-2-26H18V-46H-2Z" transform="translate(2 46)" fill="none"/>
    </clipPath>
    <clipPath id="clip-path-2">
      <path id="Path_265" data-name="Path 265" d="M12.4-29.191a2.4,2.4,0,0,0,2.4-2.4A2.4,2.4,0,0,0,12.4-34,2.4,2.4,0,0,0,10-31.6,2.4,2.4,0,0,0,12.4-29.191Z" transform="translate(-10 34)" fill="none" clip-rule="evenodd"/>
    </clipPath>
    <clipPath id="clip-path-3">
      <path id="Path_264" data-name="Path 264" d="M-2,2H46V-46H-2Z" transform="translate(2 46)" fill="none"/>
    </clipPath>
  </defs>
  <g id="Group_267" data-name="Group 267" clip-path="url(#clip-path)">
    <g id="Group_265" data-name="Group 265" transform="translate(1.667 1.667)">
      <path id="Path_260" data-name="Path 260" d="M0,1.253A1.252,1.252,0,0,1,1.253,0H15.414a1.252,1.252,0,0,1,1.253,1.253V15.414a1.252,1.252,0,0,1-1.253,1.253H1.253A1.252,1.252,0,0,1,0,15.414Z" fill="none" stroke="#1ba8e8" stroke-linecap="round" stroke-linejoin="round" stroke-width="2"/>
    </g>
    <g id="Group_266" data-name="Group 266" transform="translate(1.667 8.333)">
      <path id="Path_261" data-name="Path 261" d="M0,6.667,3.333,3.333l3.333,2.5,5-5.833,5,5V8.751A1.25,1.25,0,0,1,15.414,10H1.253A1.25,1.25,0,0,1,0,8.749Z" fill="none" stroke="#1ba8e8" stroke-linecap="round" stroke-linejoin="round" stroke-width="2"/>
    </g>
  </g>
  <g id="Group_269" data-name="Group 269" transform="translate(4.575 4.575)" clip-path="url(#clip-path-2)">
    <g id="Group_268" data-name="Group 268" transform="translate(-12.975 -12.975)" clip-path="url(#clip-path-3)">
      <path id="Path_263" data-name="Path 263" d="M5-21H23V-39H5Z" transform="translate(2 46)" fill="#1ba8e8"/>
    </g>
  </g>
</svg>
