<svg height="480pt" viewBox="0 0 480 480" width="480pt" xmlns="http://www.w3.org/2000/svg"><path d="m240 8c-128.128906 0-232 103.871094-232 232s103.871094 232 232 232 232-103.871094 232-232-103.871094-232-232-232zm128 336h-256v-208h256zm0 0" fill="#78b9eb"/><g fill="#006df0"><path d="m240 0c-132.546875 0-240 107.453125-240 240s107.453125 240 240 240 240-107.453125 240-240c-.148438-132.484375-107.515625-239.851562-240-240zm0 464c-123.710938 0-224-100.289062-224-224s100.289062-224 224-224 224 100.289062 224 224c-.140625 123.652344-100.347656 223.859375-224 224zm0 0"/><path d="m368 128h-256c-4.417969 0-8 3.582031-8 8v208c0 4.417969 3.582031 8 8 8h20.6875l-18.34375 18.34375 11.3125 11.3125 29.65625-29.65625h212.6875c4.417969 0 8-3.582031 8-8v-208c0-4.417969-3.582031-8-8-8zm-129.464844 175.414062c-2.15625.394532-4.34375.589844-6.535156.585938-22.074219-.039062-39.960938-17.925781-40-40 .027344-22.082031 17.917969-39.972656 40-40 2.246094 0 4.488281.203125 6.695312.609375 19.265626 3.238281 33.359376 19.9375 33.320313 39.46875-.039063 19.535156-14.203125 36.175781-33.480469 39.335937zm-118.535156 32.585938v-192h112v64c-30.914062.035156-55.964844 25.085938-56 56-.027344 12.089844 3.90625 23.855469 11.199219 33.496094l-38.511719 38.503906zm78.503906-27.199219c9.644532 7.289063 21.40625 11.222657 33.496094 11.199219v16h-60.6875zm161.496094 27.199219h-112v-18.351562c.230469-.074219.441406-.183594.671875-.257813 2.59375-.785156 5.125-1.757813 7.574219-2.910156.234375-.113281.457031-.242188.691406-.359375 5.007812-2.464844 9.613281-5.671875 13.664062-9.511719.183594-.175781.382813-.335937.558594-.511719 1.875-1.84375 3.617188-3.816406 5.214844-5.90625.234375-.3125.480469-.605468.703125-.917968 1.527344-2.070313 2.902344-4.242188 4.121094-6.503907l.609375-1.144531c1.175781-2.304688 2.199218-4.6875 3.054687-7.128906.128907-.382813.25-.800782.367188-1.160156.257812-.800782.546875-1.601563.800781-2.398438.320312-1.167969.5625-2.402344.800781-3.570312.089844-.429688.207031-.847657.289063-1.277344 0-.179688.039062-.371094.070312-.546875s.074219-.582031.121094-.871094c.121094-.800781.238281-1.601563.328125-2.398437 0-.378907.113281-.746094.152344-1.121094.144531-1.6875.222656-3.382813.222656-5.105469-.015625-2.894531-.25-5.785156-.703125-8.648437-.046875-.292969-.074219-.589844-.121094-.878907-.460937-2.648437-1.109375-5.265625-1.945312-7.824219-.125-.375-.230469-.800781-.367188-1.136718-.851562-2.46875-1.878906-4.875-3.070312-7.199219-.183594-.359375-.375-.710937-.570313-1.0625-1.238281-2.304687-2.640625-4.519531-4.191406-6.625-.183594-.246094-.375-.488281-.566406-.734375-1.644531-2.164062-3.445313-4.203125-5.382813-6.105469l-.265625-.230469c-4.183593-4.023437-8.972656-7.359374-14.191406-9.890624l-.214844-.109376c-2.554687-1.214843-5.199219-2.226562-7.90625-3.035156-.175781-.046875-.328125-.140625-.503906-.191406v-66.375h111.984375zm0 0"/><path d="m152 160h48v16h-48zm0 0"/><path d="m264 160h80v16h-80zm0 0"/><path d="m264 192h48v16h-48zm0 0"/><path d="m328 192h16v16h-16zm0 0"/><path d="m136 192h80v16h-80zm0 0"/></g></svg>