<svg xmlns="http://www.w3.org/2000/svg" xmlns:xlink="http://www.w3.org/1999/xlink" width="15" height="15" viewBox="0 0 15 15">
  <defs>
    <clipPath id="clip-path">
      <path id="Path_357" data-name="Path 357" d="M-2-30H13V-45H-2Z" transform="translate(2 45)" fill="none" stroke="#fd5825" stroke-width="1"/>
    </clipPath>
  </defs>
  <g id="ic_danh_gia" data-name="ic_danh gia" clip-path="url(#clip-path)">
    <g id="Group_360" data-name="Group 360" transform="translate(1.25 1.563)">
      <path id="Path_356" data-name="Path 356" d="M6.25,10.135,3.2,11.731c-.677.354-1.121.031-.992-.717L2.79,7.634.321,5.24C-.227,4.709-.055,4.189.7,4.08l3.412-.493L5.637.511c.338-.682.888-.681,1.226,0L8.389,3.587,11.8,4.08c.757.109.925.63.379,1.16L9.71,7.634l.583,3.381c.129.75-.316,1.07-.992.717Z" transform="translate(0 0)" fill="none" stroke="#fd5825" stroke-linecap="round" stroke-linejoin="round" stroke-width="1.5"/>
    </g>
  </g>
</svg>
