<svg xmlns="http://www.w3.org/2000/svg" width="26.012" height="27.262" viewBox="0 0 26.012 27.262">
  <g id="ic_cai_dat" data-name="ic_cai dat" transform="translate(1.007 1)">
    <path id="Combined_Shape" data-name="Combined Shape" d="M13.281,25.262H10.718a1.913,1.913,0,0,1-1.923-1.9V21.5a9.607,9.607,0,0,1-2.936-1.73l-1.689.961a1.944,1.944,0,0,1-2.63-.691L.258,17.853a1.858,1.858,0,0,1-.194-1.43,1.89,1.89,0,0,1,.9-1.16l1.742-.991a9.428,9.428,0,0,1,0-3.281L.965,10a1.892,1.892,0,0,1-.9-1.16A1.859,1.859,0,0,1,.258,7.409L1.54,5.222A1.944,1.944,0,0,1,4.17,4.53l1.689.961A9.61,9.61,0,0,1,8.8,3.76V1.9A1.913,1.913,0,0,1,10.718,0h2.563A1.913,1.913,0,0,1,15.2,1.9V3.637A9.607,9.607,0,0,1,18.353,5.37l1.477-.84a1.945,1.945,0,0,1,2.631.692l1.281,2.187a1.858,1.858,0,0,1,.194,1.43,1.892,1.892,0,0,1-.9,1.161l-1.421.808a9.43,9.43,0,0,1,0,3.646l1.421.808a1.891,1.891,0,0,1,.9,1.16,1.857,1.857,0,0,1-.194,1.43L22.46,20.04a1.944,1.944,0,0,1-2.631.691l-1.477-.84A9.6,9.6,0,0,1,15.2,21.625v1.738A1.913,1.913,0,0,1,13.281,25.262ZM12,9.473a3.158,3.158,0,1,0,3.158,3.157A3.161,3.161,0,0,0,12,9.473Z" transform="translate(0 0)" fill="none" stroke="#999" stroke-linecap="round" stroke-linejoin="round" stroke-miterlimit="10" stroke-width="2"/>
  </g>
</svg>
