<svg id="ic_chia_se" data-name="ic_chia se" xmlns="http://www.w3.org/2000/svg" xmlns:xlink="http://www.w3.org/1999/xlink" width="20" height="20" viewBox="0 0 20 20">
  <defs>
    <clipPath id="clip-path">
      <path id="Path_198" data-name="Path 198" d="M-6-26H14V-46H-6Z" transform="translate(6 46)" fill="none"/>
    </clipPath>
  </defs>
  <g id="Group_154" data-name="Group 154" transform="translate(0 0)" clip-path="url(#clip-path)">
    <g id="Group_149" data-name="Group 149" transform="translate(12.5 1.667)">
      <path id="Path_193" data-name="Path 193" d="M2.083,4.167A2.083,2.083,0,1,0,0,2.083,2.083,2.083,0,0,0,2.083,4.167Z" fill="none" stroke="#333" stroke-linecap="round" stroke-linejoin="round" stroke-width="1.5"/>
    </g>
    <g id="Group_150" data-name="Group 150" transform="translate(12.5 14.167)">
      <path id="Path_194" data-name="Path 194" d="M2.083,4.167A2.083,2.083,0,1,0,0,2.083,2.083,2.083,0,0,0,2.083,4.167Z" fill="none" stroke="#333" stroke-linecap="round" stroke-linejoin="round" stroke-width="1.5"/>
    </g>
    <g id="Group_151" data-name="Group 151" transform="translate(3.333 7.917)">
      <path id="Path_195" data-name="Path 195" d="M2.083,4.167A2.083,2.083,0,1,0,0,2.083,2.083,2.083,0,0,0,2.083,4.167Z" fill="none" stroke="#333" stroke-linecap="round" stroke-linejoin="round" stroke-width="1.5"/>
    </g>
    <g id="Group_152" data-name="Group 152" transform="translate(7.5 11.25)">
      <path id="Path_196" data-name="Path 196" d="M5-5.25,0-9" transform="translate(0 9)" fill="none" stroke="#333" stroke-linecap="round" stroke-linejoin="round" stroke-width="1.5"/>
    </g>
    <g id="Group_153" data-name="Group 153" transform="translate(7.5 5)">
      <path id="Path_197" data-name="Path 197" d="M5,0,0,3.75" fill="none" stroke="#333" stroke-linecap="round" stroke-linejoin="round" stroke-width="1.5"/>
    </g>
  </g>
</svg>
