<svg xmlns="http://www.w3.org/2000/svg" width="19.003" height="22.187" viewBox="0 0 19.003 22.187">
  <path id="Combined_Shape" data-name="Combined Shape" d="M4.132,7.437a5.13,5.13,0,0,1-1.466,1.9,3.745,3.745,0,0,1-2.134.754H0V20.187H12.043a2.016,2.016,0,0,0,1.589-.915A23.221,23.221,0,0,0,15.8,14.343a22.9,22.9,0,0,0,1.173-4.811,1.758,1.758,0,0,0-1.8-2.095H9.562L10.624,1.59A1.6,1.6,0,0,0,9.033,0h-1.6Z" transform="translate(1 1)" fill="none" stroke="#0b46ae" stroke-linecap="round" stroke-linejoin="round" stroke-miterlimit="10" stroke-width="2"/>
</svg>
