<svg xmlns="http://www.w3.org/2000/svg" width="71.797" height="25.016" viewBox="0 0 71.797 25.016">
  <g id="ic_danh_gia" data-name="ic_danh gia" transform="translate(-627.517 -131)">
    <g id="favorite" transform="translate(651.31 132)">
      <path id="Combined_Shape" data-name="Combined Shape" d="M12.105,19.63,6.195,22.722c-1.311.686-2.17.061-1.921-1.388L5.4,14.786.621,10.149C-.44,9.12-.107,8.114,1.355,7.9l6.608-.955L10.918.99c.656-1.321,1.72-1.318,2.374,0l2.955,5.957,6.608.955c1.466.212,1.792,1.22.734,2.246l-4.782,4.637,1.129,6.548c.25,1.452-.613,2.072-1.921,1.388Z" transform="translate(0 0)" fill="none" stroke="#fff" stroke-linecap="round" stroke-linejoin="round" stroke-miterlimit="10" stroke-width="2"/>
    </g>
    <g id="favorite-2" data-name="favorite" transform="translate(628.526 136.107)">
      <path id="Combined_Shape-2" data-name="Combined Shape" d="M7.782,12.619l-3.8,1.987c-.843.441-1.4.039-1.235-.892l.726-4.209L.4,6.524C-.283,5.863-.069,5.216.871,5.08l4.248-.614,1.9-3.83c.421-.85,1.106-.847,1.526,0l1.9,3.83,4.248.614c.942.136,1.152.784.472,1.444L12.091,9.505l.726,4.209c.161.934-.394,1.332-1.235.892Z" transform="translate(0 0)" fill="none" stroke="#fff" stroke-linecap="round" stroke-linejoin="round" stroke-miterlimit="10" stroke-width="2"/>
    </g>
    <g id="favorite-3" data-name="favorite" transform="translate(682.741 136.107)">
      <path id="Combined_Shape-3" data-name="Combined Shape" d="M7.782,12.619l-3.8,1.987c-.843.441-1.4.039-1.235-.892l.726-4.209L.4,6.524C-.283,5.863-.069,5.216.871,5.08l4.248-.614,1.9-3.83c.421-.85,1.106-.847,1.526,0l1.9,3.83,4.248.614c.942.136,1.152.784.472,1.444L12.091,9.505l.726,4.209c.161.934-.394,1.332-1.235.892Z" transform="translate(0 0)" fill="none" stroke="#fff" stroke-linecap="round" stroke-linejoin="round" stroke-miterlimit="10" stroke-width="2"/>
    </g>
  </g>
</svg>
