<?xml version="1.0" encoding="iso-8859-1"?>
<!-- Generator: Adobe Illustrator 19.0.0, SVG Export Plug-In . SVG Version: 6.00 Build 0)  -->
<svg version="1.1" id="Layer_1" xmlns="http://www.w3.org/2000/svg" xmlns:xlink="http://www.w3.org/1999/xlink" x="0px" y="0px"
	 viewBox="0 0 512 512" style="enable-background:new 0 0 512 512;" xml:space="preserve">
<path style="fill:#E6EEFF;" d="M255.999,82.051L65.022,218.169v278.833c0,8.283,6.715,14.998,14.998,14.998h351.958
	c8.283,0,14.998-6.715,14.998-14.998V218.169L255.999,82.051z"/>
<path style="fill:#B8BFCC;" d="M431.978,512c8.283,0,14.998-6.715,14.998-14.998V218.169L255.999,82.051V512L431.978,512
	L431.978,512z"/>
<path style="fill:#F23051;" d="M255.999,194.038c-61.203,0-110.987,49.784-110.987,110.987c0,33.046,14.398,63.832,39.625,85
	l58.003,113.786c2.56,5.029,7.719,8.189,13.358,8.189s10.799-3.16,13.358-8.189l58.003-113.786
	c25.227-21.168,39.625-51.954,39.625-85C366.986,243.822,317.202,194.038,255.999,194.038z M255.999,352.019
	c-25.917,0-46.994-21.077-46.994-46.994c0-25.917,21.077-46.994,46.994-46.994s46.994,21.077,46.994,46.994
	C302.994,330.942,281.916,352.019,255.999,352.019z"/>
<path style="fill:#D92C48;" d="M366.986,305.025c0,33.046-14.398,63.832-39.625,85l-58.003,113.786
	c-2.56,5.029-7.719,8.189-13.358,8.189V352.019c25.917,0,46.994-21.077,46.994-46.994c0-25.917-21.077-46.994-46.994-46.994v-63.992
	C317.202,194.038,366.986,243.822,366.986,305.025z"/>
<path style="fill:#B8BFCC;" d="M431.978,34.057h-63.992c-8.283,0-14.998,6.715-14.998,14.998v41.166l93.989,48.632V49.055
	C446.976,40.772,440.262,34.057,431.978,34.057z"/>
<path style="fill:#4DB5FF;" d="M48.715,249.776c-12.035,0-24.068-4.58-33.23-13.74c-18.323-18.323-18.323-48.137-0.001-66.461
	c0.458-0.458,0.944-0.885,1.457-1.279C23.468,163.27,177.404,44.795,229.18,8.554c16.291-11.405,37.346-11.405,53.639,0
	C334.596,44.795,488.532,163.27,495.06,168.295c0.513,0.395,0.999,0.822,1.457,1.279c18.322,18.325,18.321,48.138-0.001,66.46
	c-18.065,18.063-47.299,18.317-65.679,0.765L255.999,103.235L81.164,236.8C72.105,245.45,60.41,249.776,48.715,249.776z"/>
<path style="fill:#4D97FF;" d="M495.06,168.295c-6.528-5.025-160.464-123.5-212.241-159.741C274.673,2.852,265.336,0,255.999,0
	v103.235L430.835,236.8c18.38,17.552,47.614,17.299,65.679-0.765c18.322-18.322,18.323-48.136,0.001-66.46
	C496.059,169.117,495.573,168.69,495.06,168.295z"/>
<g>
</g>
<g>
</g>
<g>
</g>
<g>
</g>
<g>
</g>
<g>
</g>
<g>
</g>
<g>
</g>
<g>
</g>
<g>
</g>
<g>
</g>
<g>
</g>
<g>
</g>
<g>
</g>
<g>
</g>
</svg>
